<?xml version="1.0" encoding="UTF-8"?>
<svg id="Camada_1" data-name="Camada 1" xmlns="http://www.w3.org/2000/svg" viewBox="0 0 1920 1080">
  <defs>
    <style>
      .cls-1 {
        fill: #ededed;
      }
    </style>
  </defs>
  <path class="cls-1" d="M532.52,538.67c3.83,1.15,7.43-.28,10.78-4.3,3.35-4.01,5.11-8.67,5.27-13.99.16-5.32-1.76-9.04-5.75-11.17-1.44-.82-4.07-2.05-7.91-3.68,14.05-34.53,24.2-66.12,30.43-94.76,5.11-23.89,6.99-43.74,5.63-59.53-1.36-15.79-5.91-27.04-13.66-33.76-7.75-6.71-18.41-8.67-31.98-5.89-8.25,1.69-17.59,5.27-28.02,10.7,1.63-8.32,8.25-15.36,13.82-21.3,21.62-23.08,55.74-47.15,46.96-84.52-1.59-6.76-8.16-20.51-15.28-22.33-8.45-2.16-1.57,6.13-.9,8.79,4.69,18.49-6.88,44.45-16.47,59.74-8.39,13.38-33.12,40.31-32.47,55.71.08,1.96.33,4.43,1.66,5.33-2.2,1.19-4.44,2.46-6.74,3.82-4.67-36.64,6.8-51.86,16.02-85.93,17.45-64.53-29.41-99.13-83.84-113.34-5.44-1.42-24.42-7.74-21.13,3.57.98,3.36,4.54,8.54,6.03,12.34,12.19,30.92-1.15,61.27-3.67,92.32-1.06,13.05.21,27.22,8.61,37.68,2.72,3.39,7.87,8.41,12.44,7.67-26.77-18.26-9.71-56.45-4.74-82.13,3.91-20.2,5.99-39.59-1.55-59.41,36.68,12.65,76.28,35.37,80.08,79.47,3,34.83-19.95,70.55-13.62,102.49.14.68,1.19,3.9,2.21,7.17-1.24.75-2.49,1.53-3.75,2.33-5.8-5.97-10.68-12.55-13.86-20.67-12.43-31.78,5.02-68.27-13.18-99.44-3.16-5.41-10.12-14.21-16.98-12.77-.04.94.28,1.31.82,1.95,2.24,2.66,5.1,4.87,7.2,7.99,23.82,35.42-1.9,97.03,31.84,125.62-.37.25-.74.48-1.12.73-7.53,5.06-15.08,10.61-22.63,16.64.86-2.31,1.18-4.5-.11-5.47-8.17-1.86-16.42-3.41-24.55-5.49-27.78-7.1-57.31-21.37-83.26.48-1.81,1.52-6.51,5.07-4.78,7.65,2.42,3.59,8.91-2.5,11.67-3.92,14.27-7.35,29.84-6.89,45.15-3.96,16.48,3.15,32.39,10.63,49.32,10.3-1.79,3.86-3.91,7.6-6.33,11.13-6.73,5.85-13.47,12.09-20.22,18.7-27.43,14.85-61.29,4.66-83.95-14.56l-44.42-40.4c13.4-1.56,25.75-3.83,38.5-8.27,27.92-9.73,55.47-25.99,86.22-21.02,20.23,3.27,35.37,16.95,45.81,34.36l2.17-.22c-5.96-21-26.08-35.96-45.86-41.86-43.92-13.1-75.15,14.85-114.94,25.83-4.73,1.3-20.12,3.43-22.65,7.04-2.72,3.89,6.14,11.65,8.75,14.11,31.52,29.74,75.42,70.31,121.57,53.85-5.43,5.59-10.87,11.42-16.31,17.5-27.07,30.28-50.91,62.52-71.51,96.73-18.85,4.26-35.94,9.66-51.27,16.2-15.33,6.55-28.27,14.32-38.81,23.32-9.42,8.02-15.53,16.49-18.33,25.41-2.79,8.92-3.19,16.9-1.2,23.94,2,7.04,4.91,11.62,8.74,13.75,3.83,2.13,7.03.82,9.58-3.93,3.51-7.53,10.7-14.98,21.56-22.34,10.86-7.37,24.44-14.24,40.73-20.62-9.58,21.77-15.97,42.27-19.17,61.5-3.2,19.23-2.24,35.39,2.88,48.49,3.99,10.64,10.02,18.58,18.09,23.81,8.06,5.24,16.37,8.22,24.92,8.96,8.54.74,15.13.04,19.76-2.09,4.63-2.12,5.51-4.5,2.64-7.12-10.38-8.35-15.85-20.62-16.41-36.83-.56-16.2,2.71-34.12,9.82-53.76,7.11-19.64,17.21-40.92,30.31-63.83,34.98-7.03,68.68-10.07,101.1-9.08-15.02,28.15-29.11,52.21-42.29,72.18-13.18,19.97-23.28,31.75-30.31,35.35-3.51,2.13-3.99,5.12-1.44,8.96,2.55,3.85,7.39,6.67,14.49,8.47,7.1,1.8,15.37,1.11,24.8-2.09,9.42-3.19,18.84-9.94,28.27-20.25,9.42-10.47,19.32-24.18,29.71-41.12,10.38-16.94,20.36-35.48,29.95-55.61,2.55.49,6.23,1.39,11.02,2.7ZM485.81,495.71c-28.11-2.95-58.22-3.44-90.32-1.47,17.41-25.69,36.02-49.84,55.82-72.42,19.8-22.59,37.77-40.34,53.9-53.27,13.9-11.29,23.52-17.47,28.87-18.54,5.35-1.06,7.03,3.64,5.03,14.12-2,10.48-8.19,28.64-18.57,54.5-8.15,20.46-19.73,46.15-34.74,77.09Z"/>
  <path class="cls-1" d="M539.71,576.73c-4.47,13.26-5.27,24.55-2.4,33.88,2.88,9.33,7.83,16.16,14.85,20.5,7.03,4.34,13.98,6.06,20.84,5.16,6.87-.9,11.1-4.05,12.7-9.45,3.51-11.45,11.06-27.62,22.64-48.49,11.58-20.87,24.56-41.77,38.93-62.73,14.37-20.95,26.91-37.4,37.61-49.35,9.1-9.82,15.09-14.48,17.97-13.99,2.88.49,1.68,5.16-3.59,13.99-2.72,4.26-6.55,12.15-11.5,23.69-4.95,11.54-7.99,19.85-9.1,24.92-5.59,21.93-4.87,37.36,2.16,46.28,7.03,8.92,17.85,11.17,32.46,6.75,12.56-3.8,26.18-11.99,40.86-24.54-7.22,19.14-12.75,37.39-16.54,54.74-1.92,9.33-1,17.39,2.75,24.18,3.75,6.79,8.79,11.83,15.09,15.1,6.31,3.28,12.02,4.34,17.13,3.19,5.11-1.14,7.75-4.34,7.91-9.57,0-1.96.68-5.89,2.04-11.78,1.36-5.89,2.75-10.15,4.19-12.77,3.83,14.73,11.78,24.35,23.84,28.85,12.06,4.5,25.11,4.22,39.17-.86,14.05-5.07,25.55-13.42,34.5-25.04,13.73-17.84,25.23-39.36,34.5-64.57,9.26-25.2,15.01-49.1,17.25-71.69,1.11-11.29.44-21.6-2.04-30.93-2.48-9.33-6.47-16.41-11.98-21.24-5.51-4.83-11.94-6.59-19.29-5.28-7.03,1.31-14.3,5.28-21.8,11.91-7.51,6.63-14.37,13.96-20.6,21.97-6.23,8.02-13.26,17.6-21.08,28.72-4.16,6.22-7.11,10.48-8.86,12.77,11.02-31.09,39.93-80.69,86.73-148.77,4.63-6.71,6.43-13.3,5.39-19.76-1.04-6.46-3.71-10.8-8.03-13.01s-8.71-1.1-13.18,3.31c-23,22.42-46,50.45-69,84.08-20.62,30.15-38.72,60.96-54.33,92.42-8.2,8.53-15.33,14.84-21.37,18.92-11.18,7.53-18.17,8.55-20.96,3.07-2.8-5.48-1.88-14.93,2.75-28.36,4.79-13.91,7.63-26.18,8.51-36.83.88-10.64-1.08-19.64-5.87-27-4.47-6.71-11.02-9.66-19.65-8.84-8.63.82-18.21,5.49-28.75,13.99-19.01,15.06-44.24,43.95-75.71,86.66-1.92,2.62-3.2,4.34-3.83,5.16.96-2.95,3.75-9.41,8.38-19.39,4.95-11.13,8.46-19.39,10.54-24.8,2.4-6.22,2.55-11.66.48-16.33-2.08-4.66-5.23-7.57-9.46-8.72-4.23-1.14-7.95-.08-11.14,3.19-13.25,13.75-26.95,33.55-41.09,59.41-14.14,25.86-24.47,48.28-31.03,67.27ZM862.9,477.79c13.09-17.35,23.44-28.8,31.02-34.37,7.58-5.56,9.14-.16,4.67,16.2-5.11,18.17-13.42,39.53-24.92,64.08-11.5,24.55-23.08,44.52-34.74,59.9-8.15,10.64-15.77,17.88-22.88,21.73-7.11,3.85-11.98,2.58-14.61-3.81-2.64-6.38-1.88-18.49,2.28-36.33,1.76-3.76,8.78-14.93,21.08-33.51,12.3-18.57,24.99-36.54,38.09-53.89Z"/>
  <path class="cls-1" d="M1038.51,396.04c10.7-.33,21.4-2.66,32.1-7,10.7-4.33,18.77-8.63,24.2-12.89,5.27-4.25,7.55-9.49,6.83-15.71-.72-6.22-3.08-11.37-7.07-15.47-3.99-4.09-7.43-5.32-10.3-3.68-.64.49-1.68,1.31-3.12,2.45-7.83,5.89-15.29,10.64-22.4,14.24-7.11,3.6-17.29,6.79-30.55,9.57-5.27,1.15-7.91,4.05-7.91,8.72s1.92,9.13,5.75,13.38c3.83,4.26,7.98,6.38,12.46,6.38Z"/>
  <path class="cls-1" d="M1707.29,462.32c-.56-3.11-2.08-4.58-4.55-4.42-2.48.17-4.99,2.37-7.55,6.63-5.75,9.66-18.89,28.48-39.41,56.47-20.52,27.99-35.74,47.38-45.64,58.19-9.58,10.64-14.13,12.64-13.66,6.01.48-6.63,4.03-17.68,10.66-33.14,6.63-15.47,13.61-30.07,20.96-43.82,3.99-7.36,3.43-14.24-1.68-20.62-5.11-6.38-11.9-10.39-20.36-12.03,2.55-15.22,1.64-28.72-2.75-40.51-4.39-11.78-12.02-19.19-22.88-22.22-10.86-3.03-24.12.37-39.77,10.19-14.54,9.33-31.47,26.35-50.79,51.06-8.65,11.07-16.3,22.25-22.97,33.54-12.86,15.22-25.25,28.96-37.16,41.22-23,23.65-43.92,38.18-62.77,43.58-15.02,4.42-24.11,2.13-27.31-6.87-3.19-9-.8-22.42,7.19-40.26,7.82,7.69,16.97,11.62,27.43,11.78,10.46.16,20.64-3.19,30.55-10.07,10.06-6.87,18.96-16.45,26.71-28.72,7.75-12.28,13.45-25.08,17.13-38.42,3.67-13.34,4.71-25,3.12-34.98-1.44-9.82-5.67-17.59-12.7-23.32-7.03-5.73-15.81-8.47-26.35-8.22-10.54.25-21.32,3.81-32.34,10.68-13.26,8.19-26.56,19.93-39.89,35.23-13.3,15.27-24.97,31.18-35.02,47.75-.59.43-1.18.85-1.76,1.23-11.18,7.53-18.17,8.55-20.96,3.07-2.8-5.48-1.88-14.93,2.75-28.36,4.79-13.91,7.63-26.18,8.51-36.83.88-10.64-1.08-19.64-5.87-27-4.47-6.71-11.02-9.66-19.65-8.84-8.62.82-18.21,5.49-28.75,13.99-19.01,15.06-44.24,43.95-75.71,86.66-1.92,2.62-3.2,4.34-3.83,5.16.96-2.95,3.75-9.41,8.39-19.39,4.95-11.13,8.46-19.39,10.54-24.8,2.4-6.22,2.55-11.66.48-16.33-2.08-4.66-5.23-7.57-9.46-8.72-4.23-1.14-7.95-.08-11.14,3.19-10.13,10.51-20.52,24.57-31.17,42.15-.51.56-1.01,1.11-1.53,1.67-11.1,11.87-21.52,21.32-31.26,28.36-9.74,7.04-16.61,9.25-20.6,6.63-3.99-2.62-3.2-11.7,2.4-27.25,1.28-3.27,3.03-8.02,5.27-14.24.16-.49.32-.9.48-1.23,6.71-20.29,7.63-37.4,2.76-51.31-4.87-13.91-14.61-21.52-29.23-22.83-14.61-1.31-31.5,6.3-50.67,22.83-10.86,9.33-22.36,21.24-34.5,35.72-12.14,14.48-22.88,29.58-32.22,45.29-9.34,15.71-16.25,31.18-20.72,46.4-5.11,18.17-4.55,33.06,1.68,44.68,6.23,11.62,16.05,18.78,29.47,21.48,13.42,2.7,27.83.58,43.24-6.38,15.41-6.95,28.95-18.29,40.61-34,5.75-7.53,11.02-15.63,15.81-24.31,8.15,4.75,18.53,4.46,31.15-.86,5.22-2.2,10.5-5.12,15.84-8.75-3.49,8.02-6.45,15.56-8.89,22.62-4.47,13.26-5.27,24.55-2.4,33.88,2.88,9.33,7.83,16.16,14.85,20.5,7.03,4.34,13.98,6.06,20.84,5.16,6.87-.9,11.1-4.05,12.7-9.45,3.52-11.45,11.06-27.62,22.64-48.49,11.58-20.87,24.56-41.77,38.93-62.73,14.38-20.95,26.91-37.4,37.61-49.35,9.1-9.82,15.09-14.48,17.97-13.99,2.88.49,1.68,5.16-3.59,13.99-2.72,4.26-6.55,12.15-11.5,23.69-4.95,11.54-7.99,19.85-9.1,24.92-5.59,21.93-4.87,37.36,2.16,46.28,7.03,8.92,17.85,11.17,32.46,6.75,6.83-2.06,13.97-5.44,21.42-10.09-5.13,19.35-4.61,35.73,1.58,49.13,7.11,15.39,18.85,25.04,35.22,28.97,16.37,3.93,34.7,1.56,54.98-7.12,18.84-8.18,37.01-20.74,54.5-37.68,4.14-4.01,8.18-8.11,12.12-12.29-.67,12.52,2.18,23.05,8.6,31.57,8.15,10.31,19.17,16.49,33.06,18.54,13.9,2.05,27.23-1.76,40.01-11.42,8.46-6.38,15.53-14.07,21.2-23.08,5.67-9,10.98-18.9,15.93-29.71,1.44-3.11,2.4-5.16,2.88-6.14-6.23,17.19-8.11,32.49-5.63,45.91,2.47,13.42,9.02,21.65,19.65,24.67,10.62,3.03,23.76-2.09,39.41-15.34,11.98-9.82,23.76-23.4,35.34-40.75,11.58-17.35,21.44-33.84,29.59-49.47,8.15-15.63,15.81-31.14,23-46.52.96-1.8,1.6-3.11,1.92-3.93,1.92-4.09,2.59-7.69,2.04-10.8ZM1064.39,475.58c-6.55-.98-12.86.17-18.93,3.44-6.07,3.28-9.58,8.27-10.54,14.98-2.72,17.84-3.11,32.49-1.2,43.95-6.07,10.48-11.98,19.56-17.73,27.25-6.55,8.84-12.86,14.85-18.93,18.05-6.07,3.19-10.26,2.66-12.58-1.6-2.31-4.26-1.32-12.19,2.99-23.81,5.75-15.38,13.73-32.24,23.96-50.57,10.22-18.33,20.13-33.39,29.71-45.17,7.34-9,13.42-14.07,18.21-15.22,4.79-1.14,7.63,1.07,8.5,6.63.88,5.57-.28,12.93-3.47,22.09ZM1381.47,480.24c11.1-14.89,22.08-27.25,32.94-37.07,7.34-6.71,11.54-8.14,12.58-4.3,1.04,3.85-.64,10.92-5.03,21.24-4.39,10.31-10.38,20.91-17.97,31.79-7.59,10.89-15.73,19.52-24.44,25.9-8.71,6.38-16.81,8.27-24.32,5.65,6.39-13.91,15.13-28.31,26.23-43.21ZM1583.31,489.82c-2.08,2.78-7.43,11.21-16.05,25.29-8.79,14.57-16.41,26.84-22.88,36.82-6.47,9.99-12.5,18.17-18.09,24.55-6.39,7.04-11.3,9.66-14.73,7.86-3.44-1.8-4.11-7.28-2.04-16.45,2.71-9.66,8.18-23.69,16.41-42.1,8.22-18.41,17.21-35.15,26.95-50.21,11.5-18.17,20.48-27.13,26.95-26.88,6.47.25,7.63,13.96,3.47,41.12Z"/>
  <path class="cls-1" d="M676.67,723.28c-1.36-12.78-5.92-21.95-13.7-27.51-7.78-5.56-17.87-7.08-30.29-4.57-12.42,2.51-25.88,9.12-40.39,19.81-15.45,11.34-29.8,25.32-43.05,41.95-13.25,16.63-22.18,33.77-26.77,51.41-2.71,10.8-2.87,19.31-.47,25.51,2.4,6.2,6,10.35,10.8,12.43,4.8,2.09,9.24,2.73,13.31,1.93,4.07-.8,5.95-2.17,5.64-4.09-2.82-8.02-1.78-18.29,3.13-30.8,4.9-12.51,12.16-25.43,21.76-38.74,9.6-13.31,19.83-25.24,30.68-35.77,10.85-10.53,20.4-17.81,28.65-21.82,8.24-4.01,13.54-3.21,15.89,2.41,2.35,5.61.29,17.03-6.18,34.25-3.97,10.7-10.78,25.43-20.43,44.2-9.65,18.77-21.6,38.9-35.85,60.4-14.25,21.5-28.47,38.16-42.66,49.97-14.19,11.82-26.88,15.27-38.04,10.35-3.76-1.5-5.98-1.04-6.65,1.36-.68,2.41.29,5.61,2.9,9.62,2.61,4.01,6.6,7.43,11.98,10.27,5.37,2.84,12,3.99,19.88,3.45,7.88-.53,16.62-3.63,26.22-9.3,16.91-10.05,32.01-23.66,45.32-40.83,13.31-17.16,24.71-35.59,34.21-55.27,9.5-19.68,18.32-40.96,26.46-63.85,6.47-18.39,9.03-33.98,7.67-46.76Z"/>
  <path class="cls-1" d="M1004.09,767c-2.25-4.7-5.24-8.07-9-10.11-3.76-2.03-7.1-2.81-10.02-2.33-2.92.48-4.28,1.9-4.07,4.25,1.57,8.88-.05,20.37-4.85,34.49-4.8,14.12-11.33,28.07-19.57,41.87-8.25,13.8-16.39,24.76-24.42,32.89-6.26,6.2-9.89,7.17-10.88,2.89-.99-4.28.08-12,3.21-23.18,3.13-11.17,7.54-23.42,13.23-36.74,5.69-13.31,11.51-25.05,17.46-35.21,1.88-3.31,2.29-6.66,1.25-10.03-1.04-3.37-2.9-5.61-5.56-6.74-2.66-1.12-5.09-.4-7.28,2.16-10.54,11.98-22.2,28.93-34.99,50.85-1.65,2.82-3.21,5.59-4.69,8.32-4.63,4.49-9.1,8.31-13.39,11.41-6.37,4.6-10.86,6.04-13.46,4.33-2.61-1.71-2.09-7.64,1.57-17.81,1.67-4.7,2.87-8.07,3.6-10.11,4.38-13.26,4.98-24.44,1.8-33.53-3.18-9.09-9.55-14.06-19.1-14.92-9.55-.85-20.59,4.12-33.11,14.92-7.1,6.1-14.61,13.88-22.54,23.34-7.93,9.46-14.95,19.33-21.06,29.6-6.11,10.27-10.62,20.37-13.54,30.32-.13.46-.24.91-.36,1.36-3.63,4.3-7.03,8.11-10.21,11.39-9.76,10.11-12.24,7.19-7.44-8.74,1.57-5.13,5.32-14.22,11.27-27.27,5.22-11.33,9.29-20.85,12.21-28.55,2.92-7.7,4.78-15.29,5.56-22.78.78-7.48-.5-13.8-3.84-18.93-2.92-4.38-7.2-6.31-12.84-5.78-5.64.54-11.9,3.58-18.79,9.14-12.42,9.84-28.91,28.72-49.47,56.63-1.25,1.71-2.09,2.84-2.5,3.37.63-1.93,2.45-6.15,5.48-12.67,3.23-7.27,5.53-12.67,6.89-16.2,1.57-4.06,1.67-7.62.31-10.67-1.36-3.05-3.42-4.94-6.18-5.69-2.77-.75-5.19-.05-7.28,2.09-8.66,8.98-17.61,21.92-26.85,38.82-9.24,16.9-15.99,31.55-20.27,43.96-2.92,8.66-3.44,16.04-1.57,22.14,1.88,6.1,5.12,10.56,9.71,13.4,4.59,2.83,9.13,3.96,13.62,3.37,4.49-.59,7.25-2.65,8.3-6.18,2.3-7.48,7.23-18.05,14.79-31.68,7.57-13.64,16.05-27.3,25.44-40.99,9.39-13.69,17.58-24.44,24.58-32.25,5.95-6.42,9.86-9.46,11.74-9.14,1.88.32,1.1,3.37-2.35,9.14-.84,1.28-2.5,3.75-5.01,7.38-8.25,11.98-15.29,23.21-21.13,33.69-5.85,10.48-9.65,20.75-11.43,30.8-1.67,9.63-.39,17.59,3.84,23.9,4.23,6.31,10.41,9.95,18.55,10.91,8.14.96,16.8-1.23,25.99-6.58,3.59-2.12,7.12-4.7,10.6-7.71,4.08,7.32,10.41,11.84,18.99,13.57,8.77,1.76,18.19.38,28.26-4.17,10.07-4.54,18.97-11.95,26.69-22.22,3.86-5.24,7.25-10.53,10.18-15.88,5.43,3.1,12.24,2.91,20.43-.56,2.76-1.17,5.55-2.66,8.37-4.45-1.79,5.4-3.15,10.55-4.06,15.44-1.88,10.05-1.15,18.08,2.19,24.06,3.34,5.99,8.35,9.79,15.03,11.39,6.68,1.6,14.04,1.26,22.07-1.04,8.03-2.3,15.55-6.23,22.54-11.79,14.82-11.76,27.63-28.07,38.43-48.93s17.66-40.27,20.59-58.23c1.15-7.16.6-13.1-1.64-17.81ZM870.32,801.33c-4.28-.64-8.4.14-12.37,2.33-3.97,2.19-6.26,5.43-6.89,9.71-1.88,11.87-2.09,21.44-.63,28.72-3.34,5.67-7.2,11.61-11.58,17.81-4.28,5.78-8.43,9.71-12.45,11.79-4.02,2.09-6.78,1.74-8.3-1.04-1.51-2.78-.86-7.97,1.96-15.56,3.76-10.05,8.97-21.07,15.65-33.05,6.68-11.98,13.15-21.82,19.41-29.52,4.8-5.88,8.77-9.2,11.9-9.95,3.13-.75,4.98.7,5.56,4.33.57,3.64-.18,8.45-2.27,14.44Z"/>
  <path class="cls-1" d="M1274.53,750.32c3.76-4.92,7.17-8.02,10.25-9.3,3.08-1.28,5.74-1.47,7.98-.56,2.24.91,4.83,2.54,7.75,4.89,3.23,2.57,5.64,4.07,7.2,4.49,5.43,1.5,10.23.54,14.4-2.89,4.17-3.42,7.44-7.83,9.78-13.23,2.35-5.4,3.63-9.84,3.84-13.32.21-3.47-.68-4.2-2.66-2.16-4.07,4.92-7.72,8.02-10.96,9.3-3.24,1.28-6,1.47-8.3.56-2.3-.91-4.96-2.59-7.98-5.05-2.71-2.46-5.48-4.06-8.3-4.81-4.91-.86-9.26.56-13.07,4.25-3.81,3.69-6.84,8.18-9.08,13.48-2.24,5.29-3.42,9.57-3.52,12.83-.1,3.26.78,3.77,2.66,1.52Z"/>
  <path class="cls-1" d="M1526.89,765.07c-3.86-3.31-8.98-4.89-15.34-4.73-6.37.16-12.99,2.38-19.88,6.66-9.81,6.1-19.67,14.09-29.59,23.98-7.9,7.89-14.39,16.12-19.51,24.69-10.39,12.62-20.32,23.8-29.8,33.54-15.03,15.46-28.7,24.95-41.02,28.48-9.81,2.89-15.76,1.39-17.85-4.49-2.09-5.88-.52-14.65,4.7-26.31,5.11,5.03,11.09,7.6,17.93,7.7,6.83.11,13.49-2.08,19.96-6.58,6.58-4.49,12.39-10.75,17.46-18.77,5.06-8.02,8.79-16.39,11.19-25.11,2.4-8.72,3.08-16.34,2.03-22.86-.94-6.42-3.71-11.49-8.3-15.24-4.59-3.74-10.33-5.54-17.22-5.37-6.89.16-13.93,2.49-21.13,6.98-8.66,5.35-17.35,13.02-26.07,23.02-8.71,10-16.36,20.43-22.93,31.28-1.06,1.75-2.05,3.43-3,5.09-2.07,1.74-4.1,3.34-6.08,4.77-6.37,4.6-10.86,6.04-13.46,4.33-2.61-1.71-2.09-7.64,1.57-17.81.83-2.14,1.98-5.24,3.44-9.3.1-.32.21-.59.31-.8,4.38-13.26,4.98-24.44,1.8-33.53-3.18-9.09-9.55-14.06-19.1-14.92-9.55-.85-20.59,4.12-33.11,14.92-7.1,6.1-14.61,13.88-22.54,23.34-7.93,9.46-14.95,19.33-21.06,29.6-3.77,6.34-6.93,12.62-9.49,18.84-9.04,10.27-17.96,19.23-26.75,26.88-8.98,7.81-16.59,12.46-22.86,13.96-5.53,1.39-8.61-.45-9.24-5.54-.63-5.08.63-12.11,3.76-21.1,3.13-8.98,7.36-18.63,12.68-28.96,5.32-10.32,10.9-19.81,16.75-28.48,5.84-8.66,11.01-15.02,15.5-19.09,3.23-2.89,5.53-4.14,6.89-3.77,1.36.38.78,2.7-1.72,6.98-4.07,6.95-7.44,13.18-10.1,18.69-2.66,5.51-4.25,10.62-4.77,15.32-.73,6.2.42,10.83,3.44,13.88,3.03,3.05,6.03,4.44,9,4.17,2.97-.27,4.31-1.47,3.99-3.61-.73-2.57.7-7.99,4.31-16.28,3.6-8.29,7.85-16.5,12.76-24.62,4.9-8.13,7.07-15.21,6.5-21.26-.57-6.04-3.26-10.48-8.06-13.31-4.8-2.83-10.88-3.71-18.24-2.65-7.36,1.07-14.85,4.17-22.47,9.3-13.99,9.41-27.08,22.65-39.29,39.7-11.3,15.79-20.1,32.11-26.4,48.96-4.46,5.64-8.19,10.11-11.18,13.36-6.26,6.95-9.24,8.26-8.92,3.93.31-4.33,2.63-11.55,6.97-21.66,4.33-10.11,8.9-19.65,13.7-28.64,2.61-4.81,2.24-9.3-1.1-13.48-3.34-4.17-7.78-6.79-13.31-7.86,1.67-9.95,1.07-18.77-1.8-26.47-2.87-7.7-7.85-12.54-14.95-14.52-7.1-1.98-15.76.24-25.99,6.66-9.5,6.1-20.56,17.22-33.19,33.37-12.63,16.15-22.02,32.67-28.18,49.57-6.16,16.9-5.69,30.05,1.41,39.46,5.32,6.74,12.52,10.78,21.6,12.11,9.08,1.34,17.79-1.15,26.14-7.46,5.53-4.17,10.15-9.2,13.85-15.08,3.7-5.88,7.17-12.35,10.41-19.41.94-2.03,1.57-3.37,1.88-4.01-4.07,11.23-5.3,21.23-3.68,30,1.62,8.77,5.9,14.14,12.84,16.12,6.94,1.98,15.52-1.36,25.75-10.03,1.37-1.12,2.73-2.34,4.09-3.61,1.89,7.47,5.6,13.44,11.18,17.89,5.9,4.71,13.02,7.27,21.37,7.7-2.19,8.98-5.11,15.62-8.77,19.89-3.65,4.28-6.11,4.89-7.36,1.85-1.25-3.05.05-9.33,3.91-18.85.52-1.17.29-1.79-.7-1.84-.99-.05-2.22.27-3.68.96-1.46.7-2.51,1.47-3.13,2.33-7.62,10.37-11.64,19.15-12.05,26.31-.21,4.71,1.51,7.83,5.17,9.38,3.65,1.55,8.25,1.52,13.78-.08,5.53-1.6,10.96-4.57,16.28-8.9,5.32-4.33,9.39-9.6,12.21-15.8,2.82-6.1,4.07-12.19,3.76-18.29,3.86-1.28,8.19-3.26,12.99-5.94,9.85-5.98,19.08-13.86,27.69-23.63.55,2.18,1.34,4.23,2.37,6.15,4.07,7.6,10.49,12.27,19.26,14.04,8.77,1.76,18.19.38,28.26-4.17,10.07-4.54,18.92-11.95,26.53-22.22,3.76-4.92,7.2-10.21,10.33-15.88,5.32,3.1,12.11,2.91,20.35-.56,1.04-.44,2.08-.92,3.12-1.44-2.84,11.84-2.35,21.92,1.49,30.24,4.65,10.05,12.32,16.36,23.01,18.93,10.7,2.57,22.67,1.02,35.93-4.65,12.31-5.35,24.19-13.56,35.62-24.62,9.18-8.89,17.61-18.42,25.31-28.56.15.24.28.49.44.72,2.19,3.21,5.14,5.77,8.85,7.7,3.71,1.92,8.43,3.85,14.17,5.77,5.43,1.6,9.5,3.42,12.21,5.45,3.34,2.89,3.1,6.2-.7,9.95-3.81,3.75-9.32,6.79-16.52,9.14-7.2,2.35-13.59,3.1-19.18,2.25-5.58-.85-8.27-3.79-8.06-8.82.11-3.21-.65-4.89-2.27-5.05-1.62-.16-3.31.99-5.09,3.45-2.4,3.32-4.31,7.59-5.71,12.83-1.41,5.24-1.54,10.27-.39,15.08,1.15,4.81,4.02,8.4,8.61,10.75,6.37,3.21,14.79,3.61,25.28,1.2s20.4-6.95,29.74-13.64c9.34-6.68,15.73-14.25,19.18-22.7,2.29-5.45,2.87-9.95,1.72-13.47-1.15-3.53-3.31-6.42-6.5-8.66-3.18-2.24-8.06-4.92-14.64-8.02-1.25-.64-2.25-1.12-2.97-1.44-6.79-3.21-8.85-9.2-6.18-17.97,2.66-8.77,7.59-17.81,14.79-27.11,7.2-9.3,13.31-15.88,18.32-19.73,4.38-3.42,7.04-4.52,7.98-3.29.94,1.23.05,3.88-2.66,7.94-5.64,7.92-10.15,15.05-13.54,21.42-3.39,6.36-4.83,11.85-4.31,16.44.42,3.96,1.96,6.98,4.62,9.06,2.66,2.09,5.24,3.1,7.75,3.05,2.51-.05,3.65-.93,3.44-2.65-.63-2.67,1.2-8.18,5.48-16.52,4.28-8.34,9.13-16.36,14.56-24.06,4.8-6.63,7.2-12.83,7.2-18.61s-1.93-10.32-5.79-13.64ZM1087.77,810.63c-1.36,1.82-4.85,7.33-10.49,16.52-5.74,9.52-10.72,17.54-14.95,24.06-4.23,6.52-8.17,11.87-11.82,16.04-4.18,4.6-7.38,6.31-9.63,5.13-2.24-1.17-2.69-4.76-1.33-10.75,1.77-6.31,5.35-15.48,10.72-27.51,5.37-12.03,11.24-22.97,17.61-32.81,7.51-11.87,13.38-17.73,17.61-17.57,4.23.16,4.98,9.12,2.27,26.87ZM1302.4,801.33c-4.28-.64-8.4.11-12.37,2.25-3.97,2.14-6.26,5.4-6.89,9.79-1.78,11.66-2.04,21.23-.78,28.72-3.97,6.85-7.83,12.78-11.58,17.81-4.28,5.78-8.4,9.71-12.37,11.79-3.97,2.09-6.7,1.74-8.22-1.04-1.51-2.78-.86-7.97,1.96-15.56,3.76-10.05,8.97-21.07,15.65-33.05,6.68-11.98,13.15-21.82,19.41-29.52,4.8-5.88,8.77-9.2,11.9-9.95,3.13-.75,4.98.7,5.56,4.33.57,3.64-.18,8.45-2.27,14.44ZM1381.22,804.38c7.25-9.73,14.43-17.81,21.53-24.22,4.8-4.38,7.54-5.32,8.22-2.81.68,2.51-.42,7.14-3.29,13.88-2.87,6.74-6.79,13.66-11.74,20.77-4.96,7.11-10.28,12.75-15.97,16.92-5.69,4.17-10.99,5.4-15.89,3.69,4.17-9.09,9.89-18.5,17.14-28.23Z"/>
</svg>